<svg xmlns="http://www.w3.org/2000/svg" width="200" height="237.801" viewBox="0 0 200 237.801"><defs><style>.a{fill:#3f3d56;}.b{fill:#6c63ff;}.c{fill:#fff;}.d{fill:#ff6584;}.e{fill:#e6e6e6;}</style></defs><g transform="translate(0.24 0)"><circle class="a" cx="21.381" cy="21.381" r="21.381" transform="translate(26.858 20.795)"/><circle class="a" cx="21.381" cy="21.381" r="21.381" transform="translate(156.621 27.922)"/><path class="b" d="M767.569,216.718A21.38,21.38,0,0,0,748.1,229.261a21.378,21.378,0,0,1,33.684,24.8,21.378,21.378,0,0,0-14.216-37.347Z" transform="translate(-589.191 -189.546)"/><path class="b" d="M435.38,197.718a21.38,21.38,0,0,1,19.468,12.543,21.378,21.378,0,0,0-33.684,24.8,21.378,21.378,0,0,1,14.216-37.347Z" transform="translate(-387.515 -177.674)"/><path class="a" d="M453.133,448.859a54.956,54.956,0,1,1-16.1-39.046A55.186,55.186,0,0,1,453.133,448.859Z" transform="translate(-343 -291.707)"/><path class="b" d="M521.395,448.858a54.955,54.955,0,0,1-4.955,22.878,65.315,65.315,0,0,1-63.491-76.4,55.186,55.186,0,0,1,68.447,53.525Z" transform="translate(-408.906 -294.93)"/><circle class="a" cx="65.269" cy="65.269" r="65.269" transform="translate(47.839 32.798)"/><path class="c" d="M653.85,347.416A21.381,21.381,0,0,1,683.717,343a21.382,21.382,0,1,0-29.866,4.415Z" transform="translate(-526.616 -244.383)"/><path class="c" d="M520.85,358.416A21.381,21.381,0,0,1,550.717,354a21.382,21.382,0,1,0-29.867,4.415Z" transform="translate(-445.866 -251.075)"/><circle class="a" cx="7.877" cy="7.877" r="7.877" transform="translate(81.395 78.158)"/><circle class="a" cx="7.877" cy="7.877" r="7.877" transform="translate(134.455 71.919)"/><circle class="d" cx="4.126" cy="4.126" r="4.126" transform="translate(110.872 99.866)"/><path class="a" d="M454,692.863V674.718h-6v18.145a9,9,0,0,0-6,8.488h18.005a9,9,0,0,0-6-8.488Z" transform="translate(-403.502 -467.301)"/><path class="a" d="M513,692.863V674.718h-6v18.145a9,9,0,0,0-6,8.488h18.005a9,9,0,0,0-6-8.488Z" transform="translate(-439.472 -467.301)"/><path class="a" d="M548.06,183.339c-2.719-4.378-4.546-9.522-3.98-14.645s3.922-10.122,8.862-11.59,11.061,1.573,11.992,6.643a41.686,41.686,0,0,1,22.086-18.394c4.318-1.522,10.057-1.867,12.553,1.971,1.236,1.9,1.368,4.482,3.023,6.029,2.595,2.426,6.756.717,10.3.925,4.987.292,9,4.946,9.629,9.9s-1.567,9.936-4.806,13.738-7.454,6.623-11.611,9.393" transform="translate(-464.046 -144.282)"/><path class="b" d="M653.328,438.967c.269-.284.546-.559.836-.821q.192-.174.391-.341.124-.1.25-.206c.145-.117.191-.146.015-.015a16.352,16.352,0,0,1,2.01-1.287q.484-.26.984-.486l.236-.1c-.354.157-.076.032.015,0q.3-.121.605-.229a17.387,17.387,0,0,1,2.309-.649c.361-.075.725-.133,1.089-.192.245-.039-.309.034-.062.009.108-.011.216-.025.323-.037q.324-.034.649-.056a18.142,18.142,0,0,1,2.343-.008c.39.024.778.063,1.166.109-.391-.046.057.011.195.033q.32.053.639.117a17.076,17.076,0,0,1,2.248.616q.275.1.546.2c.1.039.2.08.3.12-.05-.02-.329-.146-.047-.018.353.16.7.325,1.045.507a16.508,16.508,0,0,1,2.014,1.284c.195.143-.219-.181-.034-.025.083.07.168.136.251.205q.2.167.393.341c.33.3.647.61.951.933q.417.443.8.914s.289.359.134.163c-.131-.164.054.072.083.111q.233.312.452.634a19.65,19.65,0,0,1,1.29,2.189q.272.537.514,1.089c.035.081.158.379.025.054q.054.132.107.264.133.331.256.667a31.39,31.39,0,0,1,1.355,5.043q.122.654.224,1.311.046.293.087.587c0-.005.064.478.031.217-.03-.232.022.175.027.218.114.914.2,1.83.276,2.748.143,1.8.219,3.6.274,5.409.139,4.578.258,9.157.386,13.736l.787,28.045.787,28.045.1,3.481a1.688,1.688,0,1,0,3.376,0l-.808-28.818-.8-28.625-.4-14.409a91.615,91.615,0,0,0-.858-11.532c-1.094-7.034-4.271-14.347-11.063-17.541a19.233,19.233,0,0,0-19.753,2.047,15.528,15.528,0,0,0-1.73,1.569,1.688,1.688,0,0,0,2.387,2.387Z" transform="translate(-530.048 -315.096)"/><path class="e" d="M688.876,593.718A1.878,1.878,0,0,0,687,595.594l3.75,56.992a1.884,1.884,0,0,0,1.876,1.9h30.759a1.878,1.878,0,0,0,1.876-1.876l3.752-57.041a1.874,1.874,0,0,0-1.876-1.851Z" transform="translate(-551.01 -416.685)"/><path class="b" d="M696.792,601.218a1.876,1.876,0,0,0-1.871,2l3.449,51.39a1.881,1.881,0,0,0,1.871,1.75h25.425a1.881,1.881,0,0,0,1.871-1.75l3.449-51.39a1.876,1.876,0,0,0-1.871-2Z" transform="translate(-555.957 -421.372)"/><path class="e" d="M728.75,624.718a.751.751,0,0,0-.75.75v4.126a.751.751,0,0,0,.75.75h6.377a.751.751,0,0,0,.75-.75v-4.126a.751.751,0,0,0-.75-.75Z" transform="translate(-578.185 -437.699)"/><path class="e" d="M747.75,653.718a.751.751,0,0,0-.75.75v4.126a.751.751,0,0,0,.75.75h6.377a.751.751,0,0,0,.75-.75v-4.126a.751.751,0,0,0-.75-.75Z" transform="translate(-589.784 -454.178)"/><path class="e" d="M729.75,677.718a.751.751,0,0,0-.75.75v4.126a.751.751,0,0,0,.75.75h6.377a.751.751,0,0,0,.75-.75v-4.126a.751.751,0,0,0-.75-.75Z" transform="translate(-578.796 -469.176)"/><path class="b" d="M407.381,566.585c1.952.647,3.327,2.308,4.47,3.936a22.518,22.518,0,0,0,3.871,4.811,6.326,6.326,0,0,0,4.981,1.5,4.036,4.036,0,0,0,3.533-3.323c.354-2.4-1.325-4.619-2.8-6.326l-.4.961c2.347.253,4.387,1.591,6.536,2.452,2.059.825,4.494,1.275,6.551.2a5.942,5.942,0,0,0,2.9-4.188,8.614,8.614,0,0,0-.812-5.484,22.641,22.641,0,0,0-4.632-5.79l-.547.94c2.589.389,5.476.751,7.723-.913a4.578,4.578,0,0,0,1.805-2.635,5.092,5.092,0,0,0-.55-3.449c-1.181-2.3-3.411-3.922-5.41-5.465a78.871,78.871,0,0,0-15.064-9.157c-.653-.3-1.225.666-.568.972a79.325,79.325,0,0,1,13.043,7.645,36.149,36.149,0,0,1,5.693,4.7c1.393,1.534,2.663,3.88,1.141,5.776-1.79,2.23-5.029,1.815-7.513,1.442a.568.568,0,0,0-.547.94c2.6,2.6,5.678,5.714,5.227,9.711a5.087,5.087,0,0,1-2.238,3.864c-1.833,1.089-4.125.529-5.971-.225-2.241-.914-4.306-2.2-6.76-2.462-.529-.057-.682.631-.4.961,1.191,1.38,2.619,3.175,2.513,5.11a2.986,2.986,0,0,1-3.014,2.679c-3.85.233-5.794-3.776-7.747-6.4a10.033,10.033,0,0,0-4.716-3.86c-.689-.229-.984.858-.3,1.085Z" transform="translate(-383.138 -381.574)"/></g></svg>